<svg width="140" height="140" viewBox="0 0 140 140" fill="none" xmlns="http://www.w3.org/2000/svg">
<g filter="url(#filter0_d_854_13710)">
<path d="M55.2086 82.0136L52 46H87.2747L84.0661 81.9942L69.6082 86" fill="#E44D26"/>
<path d="M69.6367 82.9376V48.9561H84.0558L81.3042 79.6804" fill="#F16529"/>
<path d="M58.5527 53.3604H69.6368V57.7745H63.3947L63.8031 62.2957H69.6368V66.7002H59.7584L58.5527 53.3604ZM59.9528 68.917H64.3865L64.6976 72.4464L69.6368 73.7687V78.3774L60.5751 75.8494" fill="#EBEBEB"/>
<path d="M80.6818 53.3604H69.6172V57.7745H80.2735L80.6818 53.3604ZM79.8748 62.2957H69.6172V66.7099H75.062L74.5467 72.4464L69.6172 73.7687V78.3579L78.6595 75.8494" fill="white"/>
<rect x="40.5" y="36.5" width="59" height="59" rx="5.5" stroke="#04B2AE" stroke-opacity="0.965"/>
</g>
<defs>
<filter id="filter0_d_854_13710" x="0" y="0" width="140" height="140" filterUnits="userSpaceOnUse" color-interpolation-filters="sRGB">
<feFlood flood-opacity="0" result="BackgroundImageFix"/>
<feColorMatrix in="SourceAlpha" type="matrix" values="0 0 0 0 0 0 0 0 0 0 0 0 0 0 0 0 0 0 127 0" result="hardAlpha"/>
<feOffset dy="4"/>
<feGaussianBlur stdDeviation="20"/>
<feComposite in2="hardAlpha" operator="out"/>
<feColorMatrix type="matrix" values="0 0 0 0 0.0367917 0 0 0 0 0.0348958 0 0 0 0 0.0484375 0 0 0 0.1 0"/>
<feBlend mode="normal" in2="BackgroundImageFix" result="effect1_dropShadow_854_13710"/>
<feBlend mode="normal" in="SourceGraphic" in2="effect1_dropShadow_854_13710" result="shape"/>
</filter>
</defs>
</svg>
