<svg width="140" height="140" viewBox="0 0 140 140" fill="none" xmlns="http://www.w3.org/2000/svg">
<g filter="url(#filter0_d_854_13716)">
<path d="M87.27 46L84.0568 81.9958L69.6134 86L55.2098 82.0015L52 46H87.27Z" fill="#264DE4"/>
<path d="M81.3057 79.7037L84.0516 48.9436H69.6348V82.9393L81.3057 79.7037Z" fill="#2965F1"/>
<path d="M59.3584 62.2961L59.7541 66.7115H69.635V62.2961H59.3584Z" fill="#EBEBEB"/>
<path d="M69.6353 53.3591H69.62H58.5635L58.9649 57.7746H69.6353V53.3591Z" fill="#EBEBEB"/>
<path d="M69.6348 78.3573V73.7634L69.6154 73.7685L64.6979 72.4407L64.3836 68.9192H61.9941H59.9512L60.5698 75.852L69.6145 78.3629L69.6348 78.3573Z" fill="#EBEBEB"/>
<path d="M75.0572 66.7115L74.5447 72.4379L69.6201 73.7671V78.3608L78.672 75.8521L78.7384 75.1061L79.776 63.4817L79.8837 62.2961L80.6808 53.3591H69.6201V57.7746H75.8419L75.4401 62.2961H69.6201V66.7115H75.0572Z" fill="white"/>
<rect x="40.5" y="36.5" width="59" height="59" rx="5.5" stroke="#04B2AE" stroke-opacity="0.965"/>
</g>
<defs>
<filter id="filter0_d_854_13716" x="0" y="0" width="140" height="140" filterUnits="userSpaceOnUse" color-interpolation-filters="sRGB">
<feFlood flood-opacity="0" result="BackgroundImageFix"/>
<feColorMatrix in="SourceAlpha" type="matrix" values="0 0 0 0 0 0 0 0 0 0 0 0 0 0 0 0 0 0 127 0" result="hardAlpha"/>
<feOffset dy="4"/>
<feGaussianBlur stdDeviation="20"/>
<feComposite in2="hardAlpha" operator="out"/>
<feColorMatrix type="matrix" values="0 0 0 0 0.0367917 0 0 0 0 0.0348958 0 0 0 0 0.0484375 0 0 0 0.1 0"/>
<feBlend mode="normal" in2="BackgroundImageFix" result="effect1_dropShadow_854_13716"/>
<feBlend mode="normal" in="SourceGraphic" in2="effect1_dropShadow_854_13716" result="shape"/>
</filter>
</defs>
</svg>
