<svg width="26" height="30" viewBox="0 0 26 30" fill="none" xmlns="http://www.w3.org/2000/svg">
<path d="M13.68 0.834942C13.786 0.726084 13.9127 0.639561 14.0527 0.580483C14.1927 0.521404 14.3431 0.490967 14.495 0.490967C14.6469 0.490967 14.7973 0.521404 14.9373 0.580483C15.0773 0.639561 15.204 0.726084 15.31 0.834942C15.5273 1.05807 15.6489 1.35723 15.6489 1.66869C15.6489 1.98016 15.5273 2.27931 15.31 2.50244L3.1275 14.9974L15.31 27.4949C15.4197 27.6072 15.5061 27.74 15.5645 27.8857C15.6228 28.0314 15.6519 28.1871 15.65 28.3441C15.6482 28.501 15.6154 28.6561 15.5537 28.8003C15.4919 28.9446 15.4023 29.0753 15.29 29.1849C15.183 29.2895 15.0565 29.3719 14.9177 29.4274C14.7788 29.483 14.6304 29.5107 14.4808 29.5088C14.3313 29.507 14.1836 29.4756 14.0462 29.4166C13.9088 29.3576 13.7843 29.2721 13.68 29.1649L0.724995 15.8699C0.49746 15.6365 0.370117 15.3234 0.370117 14.9974C0.370117 14.6715 0.49746 14.3584 0.724995 14.1249L13.68 0.834942ZM23.68 0.834942C23.786 0.726084 23.9127 0.639561 24.0527 0.580483C24.1927 0.521404 24.3431 0.490967 24.495 0.490967C24.6469 0.490967 24.7973 0.521404 24.9373 0.580483C25.0773 0.639561 25.204 0.726084 25.31 0.834942C25.5273 1.05807 25.6489 1.35723 25.6489 1.66869C25.6489 1.98016 25.5273 2.27931 25.31 2.50244L13.1275 14.9974L25.31 27.4949C25.4197 27.6072 25.5061 27.74 25.5645 27.8857C25.6228 28.0314 25.6519 28.1871 25.65 28.3441C25.6482 28.501 25.6154 28.6561 25.5537 28.8003C25.4919 28.9446 25.4023 29.0753 25.29 29.1849C25.183 29.2895 25.0565 29.3719 24.9177 29.4274C24.7788 29.483 24.6304 29.5107 24.4809 29.5088C24.3313 29.507 24.1836 29.4756 24.0462 29.4166C23.9088 29.3576 23.7843 29.2721 23.68 29.1649L10.725 15.8699C10.4975 15.6365 10.3701 15.3234 10.3701 14.9974C10.3701 14.6715 10.4975 14.3584 10.725 14.1249L23.68 0.834942Z" fill="#005F98"/>
</svg>
