<svg width="14" height="16" viewBox="0 0 14 16" fill="none"  class="text-danger" xmlns="http://www.w3.org/2000/svg">
<path d="M7.34049 0.917593C7.39348 0.863164 7.45684 0.819903 7.52683 0.790363C7.59682 0.760824 7.67202 0.745605 7.74799 0.745605C7.82395 0.745605 7.89915 0.760824 7.96914 0.790363C8.03913 0.819903 8.10249 0.863164 8.15549 0.917593C8.26414 1.02916 8.32494 1.17874 8.32494 1.33447C8.32494 1.4902 8.26414 1.63978 8.15549 1.75134L2.06424 7.99884L8.15549 14.2476C8.21032 14.3037 8.25356 14.3701 8.28273 14.443C8.3119 14.5158 8.32644 14.5937 8.32551 14.6722C8.32458 14.7506 8.30821 14.8281 8.27732 14.9003C8.24643 14.9724 8.20163 15.0378 8.14549 15.0926C8.09201 15.1449 8.02875 15.1861 7.95932 15.2138C7.8899 15.2416 7.81568 15.2555 7.74091 15.2545C7.66614 15.2536 7.59229 15.2379 7.52358 15.2084C7.45487 15.1789 7.39265 15.1362 7.34049 15.0826L0.862986 8.43509C0.749218 8.31838 0.685547 8.16183 0.685547 7.99884C0.685547 7.83585 0.749218 7.67931 0.862986 7.56259L7.34049 0.917593ZM12.3405 0.917593C12.3935 0.863164 12.4568 0.819903 12.5268 0.790363C12.5968 0.760824 12.672 0.745605 12.748 0.745605C12.824 0.745605 12.8992 0.760824 12.9691 0.790363C13.0391 0.819903 13.1025 0.863164 13.1555 0.917593C13.2641 1.02916 13.3249 1.17874 13.3249 1.33447C13.3249 1.4902 13.2641 1.63978 13.1555 1.75134L7.06424 7.99884L13.1555 14.2476C13.2103 14.3037 13.2536 14.3701 13.2827 14.443C13.3119 14.5158 13.3264 14.5937 13.3255 14.6722C13.3246 14.7506 13.3082 14.8281 13.2773 14.9003C13.2464 14.9724 13.2016 15.0378 13.1455 15.0926C13.092 15.1449 13.0287 15.1861 12.9593 15.2138C12.8899 15.2416 12.8157 15.2555 12.7409 15.2545C12.6661 15.2536 12.5923 15.2379 12.5236 15.2084C12.4549 15.1789 12.3927 15.1362 12.3405 15.0826L5.86299 8.43509C5.74922 8.31838 5.68555 8.16183 5.68555 7.99884C5.68555 7.83585 5.74922 7.67931 5.86299 7.56259L12.3405 0.917593Z" fill="#EFCB00"/>
</svg>
