<svg width="92" height="8" viewBox="0 0 92 8" fill="none" xmlns="http://www.w3.org/2000/svg">
<path d="M0.5 3.5C0.223858 3.5 -2.41411e-08 3.72386 0 4C2.41411e-08 4.27614 0.223858 4.5 0.5 4.5L0.5 3.5ZM91.8536 4.35355C92.0488 4.15828 92.0488 3.8417 91.8536 3.64644L88.6716 0.464458C88.4763 0.269196 88.1597 0.269196 87.9645 0.464458C87.7692 0.659721 87.7692 0.976303 87.9645 1.17157L90.7929 3.99999L87.9645 6.82842C87.7692 7.02368 87.7692 7.34026 87.9645 7.53553C88.1597 7.73079 88.4763 7.73079 88.6716 7.53553L91.8536 4.35355ZM1.3125 4.5C1.58864 4.5 1.8125 4.27614 1.8125 4C1.8125 3.72386 1.58864 3.5 1.3125 3.5L1.3125 4.5ZM2.9375 3.5C2.66136 3.5 2.4375 3.72386 2.4375 4C2.4375 4.27614 2.66136 4.5 2.9375 4.5L2.9375 3.5ZM4.5625 4.5C4.83864 4.5 5.0625 4.27614 5.0625 4C5.0625 3.72386 4.83864 3.5 4.5625 3.5L4.5625 4.5ZM6.1875 3.5C5.91136 3.5 5.6875 3.72386 5.6875 4C5.6875 4.27614 5.91136 4.5 6.1875 4.5L6.1875 3.5ZM7.8125 4.5C8.08864 4.5 8.3125 4.27614 8.3125 4C8.3125 3.72386 8.08864 3.5 7.8125 3.5L7.8125 4.5ZM9.4375 3.5C9.16136 3.5 8.9375 3.72386 8.9375 4C8.9375 4.27614 9.16136 4.5 9.4375 4.5L9.4375 3.5ZM11.0625 4.5C11.3386 4.5 11.5625 4.27614 11.5625 4C11.5625 3.72386 11.3386 3.5 11.0625 3.5L11.0625 4.5ZM12.6875 3.5C12.4114 3.5 12.1875 3.72386 12.1875 4C12.1875 4.27614 12.4114 4.5 12.6875 4.5L12.6875 3.5ZM14.3125 4.5C14.5886 4.5 14.8125 4.27614 14.8125 4C14.8125 3.72386 14.5886 3.5 14.3125 3.5L14.3125 4.5ZM15.9375 3.5C15.6614 3.5 15.4375 3.72386 15.4375 4C15.4375 4.27614 15.6614 4.5 15.9375 4.5L15.9375 3.5ZM17.5625 4.5C17.8386 4.5 18.0625 4.27614 18.0625 4C18.0625 3.72386 17.8386 3.5 17.5625 3.5L17.5625 4.5ZM19.1875 3.5C18.9114 3.5 18.6875 3.72386 18.6875 4C18.6875 4.27614 18.9114 4.5 19.1875 4.5L19.1875 3.5ZM20.8125 4.5C21.0886 4.5 21.3125 4.27614 21.3125 4C21.3125 3.72386 21.0886 3.5 20.8125 3.5L20.8125 4.5ZM22.4375 3.5C22.1614 3.5 21.9375 3.72386 21.9375 4C21.9375 4.27614 22.1614 4.5 22.4375 4.5L22.4375 3.5ZM24.0625 4.5C24.3386 4.5 24.5625 4.27614 24.5625 4C24.5625 3.72386 24.3386 3.5 24.0625 3.5L24.0625 4.5ZM25.6875 3.5C25.4114 3.5 25.1875 3.72386 25.1875 4C25.1875 4.27614 25.4114 4.5 25.6875 4.5L25.6875 3.5ZM27.3125 4.5C27.5886 4.5 27.8125 4.27614 27.8125 4C27.8125 3.72386 27.5886 3.5 27.3125 3.5L27.3125 4.5ZM28.9375 3.5C28.6614 3.5 28.4375 3.72386 28.4375 4C28.4375 4.27614 28.6614 4.5 28.9375 4.5L28.9375 3.5ZM30.5625 4.5C30.8386 4.5 31.0625 4.27614 31.0625 4C31.0625 3.72385 30.8386 3.5 30.5625 3.5L30.5625 4.5ZM32.1875 3.5C31.9114 3.5 31.6875 3.72385 31.6875 4C31.6875 4.27614 31.9114 4.5 32.1875 4.5L32.1875 3.5ZM33.8125 4.5C34.0886 4.5 34.3125 4.27614 34.3125 4C34.3125 3.72385 34.0886 3.5 33.8125 3.5L33.8125 4.5ZM35.4375 3.5C35.1614 3.5 34.9375 3.72385 34.9375 4C34.9375 4.27614 35.1614 4.5 35.4375 4.5L35.4375 3.5ZM37.0625 4.5C37.3386 4.5 37.5625 4.27614 37.5625 4C37.5625 3.72385 37.3386 3.5 37.0625 3.5L37.0625 4.5ZM38.6875 3.5C38.4114 3.5 38.1875 3.72385 38.1875 4C38.1875 4.27614 38.4114 4.5 38.6875 4.5L38.6875 3.5ZM40.3125 4.5C40.5886 4.5 40.8125 4.27614 40.8125 4C40.8125 3.72385 40.5886 3.5 40.3125 3.5L40.3125 4.5ZM41.9375 3.5C41.6614 3.5 41.4375 3.72385 41.4375 4C41.4375 4.27614 41.6614 4.5 41.9375 4.5L41.9375 3.5ZM43.5625 4.5C43.8386 4.5 44.0625 4.27614 44.0625 4C44.0625 3.72385 43.8386 3.5 43.5625 3.5L43.5625 4.5ZM45.1875 3.5C44.9114 3.5 44.6875 3.72385 44.6875 4C44.6875 4.27614 44.9114 4.5 45.1875 4.5L45.1875 3.5ZM46.8125 4.5C47.0886 4.5 47.3125 4.27614 47.3125 4C47.3125 3.72385 47.0886 3.5 46.8125 3.5L46.8125 4.5ZM48.4375 3.5C48.1614 3.5 47.9375 3.72385 47.9375 4C47.9375 4.27614 48.1614 4.5 48.4375 4.5L48.4375 3.5ZM50.0625 4.5C50.3386 4.5 50.5625 4.27614 50.5625 4C50.5625 3.72385 50.3386 3.5 50.0625 3.5L50.0625 4.5ZM51.6875 3.5C51.4114 3.5 51.1875 3.72385 51.1875 4C51.1875 4.27614 51.4114 4.5 51.6875 4.5L51.6875 3.5ZM53.3125 4.5C53.5886 4.5 53.8125 4.27614 53.8125 4C53.8125 3.72385 53.5886 3.5 53.3125 3.5L53.3125 4.5ZM54.9375 3.5C54.6614 3.5 54.4375 3.72385 54.4375 4C54.4375 4.27614 54.6614 4.5 54.9375 4.5L54.9375 3.5ZM56.5625 4.5C56.8386 4.5 57.0625 4.27614 57.0625 4C57.0625 3.72385 56.8386 3.5 56.5625 3.5L56.5625 4.5ZM58.1875 3.49999C57.9114 3.49999 57.6875 3.72385 57.6875 4C57.6875 4.27614 57.9114 4.49999 58.1875 4.49999L58.1875 3.49999ZM59.8125 4.49999C60.0886 4.49999 60.3125 4.27614 60.3125 3.99999C60.3125 3.72385 60.0886 3.49999 59.8125 3.49999L59.8125 4.49999ZM61.4375 3.49999C61.1614 3.49999 60.9375 3.72385 60.9375 3.99999C60.9375 4.27614 61.1614 4.49999 61.4375 4.49999L61.4375 3.49999ZM63.0625 4.49999C63.3386 4.49999 63.5625 4.27614 63.5625 3.99999C63.5625 3.72385 63.3386 3.49999 63.0625 3.49999L63.0625 4.49999ZM64.6875 3.49999C64.4114 3.49999 64.1875 3.72385 64.1875 3.99999C64.1875 4.27614 64.4114 4.49999 64.6875 4.49999L64.6875 3.49999ZM66.3125 4.49999C66.5886 4.49999 66.8125 4.27614 66.8125 3.99999C66.8125 3.72385 66.5886 3.49999 66.3125 3.49999L66.3125 4.49999ZM67.9375 3.49999C67.6614 3.49999 67.4375 3.72385 67.4375 3.99999C67.4375 4.27614 67.6614 4.49999 67.9375 4.49999L67.9375 3.49999ZM69.5625 4.49999C69.8386 4.49999 70.0625 4.27614 70.0625 3.99999C70.0625 3.72385 69.8386 3.49999 69.5625 3.49999L69.5625 4.49999ZM71.1875 3.49999C70.9114 3.49999 70.6875 3.72385 70.6875 3.99999C70.6875 4.27614 70.9114 4.49999 71.1875 4.49999L71.1875 3.49999ZM72.8125 4.49999C73.0886 4.49999 73.3125 4.27614 73.3125 3.99999C73.3125 3.72385 73.0886 3.49999 72.8125 3.49999L72.8125 4.49999ZM74.4375 3.49999C74.1614 3.49999 73.9375 3.72385 73.9375 3.99999C73.9375 4.27614 74.1614 4.49999 74.4375 4.49999L74.4375 3.49999ZM76.0625 4.49999C76.3386 4.49999 76.5625 4.27614 76.5625 3.99999C76.5625 3.72385 76.3386 3.49999 76.0625 3.49999L76.0625 4.49999ZM77.6875 3.49999C77.4114 3.49999 77.1875 3.72385 77.1875 3.99999C77.1875 4.27614 77.4114 4.49999 77.6875 4.49999L77.6875 3.49999ZM79.3125 4.49999C79.5886 4.49999 79.8125 4.27614 79.8125 3.99999C79.8125 3.72385 79.5886 3.49999 79.3125 3.49999L79.3125 4.49999ZM80.9375 3.49999C80.6614 3.49999 80.4375 3.72385 80.4375 3.99999C80.4375 4.27614 80.6614 4.49999 80.9375 4.49999L80.9375 3.49999ZM82.5625 4.49999C82.8386 4.49999 83.0625 4.27614 83.0625 3.99999C83.0625 3.72385 82.8386 3.49999 82.5625 3.49999L82.5625 4.49999ZM84.1875 3.49999C83.9114 3.49999 83.6875 3.72385 83.6875 3.99999C83.6875 4.27614 83.9114 4.49999 84.1875 4.49999L84.1875 3.49999ZM85.8125 4.49999C86.0886 4.49999 86.3125 4.27613 86.3125 3.99999C86.3125 3.72385 86.0886 3.49999 85.8125 3.49999L85.8125 4.49999ZM87.4375 3.49999C87.1614 3.49999 86.9375 3.72385 86.9375 3.99999C86.9375 4.27613 87.1614 4.49999 87.4375 4.49999L87.4375 3.49999ZM89.0625 4.49999C89.3386 4.49999 89.5625 4.27613 89.5625 3.99999C89.5625 3.72385 89.3386 3.49999 89.0625 3.49999L89.0625 4.49999ZM90.6875 3.49999C90.4114 3.49999 90.1875 3.72385 90.1875 3.99999C90.1875 4.27613 90.4114 4.49999 90.6875 4.49999L90.6875 3.49999ZM0.5 4.5L1.3125 4.5L1.3125 3.5L0.5 3.5L0.5 4.5ZM2.9375 4.5L4.5625 4.5L4.5625 3.5L2.9375 3.5L2.9375 4.5ZM6.1875 4.5L7.8125 4.5L7.8125 3.5L6.1875 3.5L6.1875 4.5ZM9.4375 4.5L11.0625 4.5L11.0625 3.5L9.4375 3.5L9.4375 4.5ZM12.6875 4.5L14.3125 4.5L14.3125 3.5L12.6875 3.5L12.6875 4.5ZM15.9375 4.5L17.5625 4.5L17.5625 3.5L15.9375 3.5L15.9375 4.5ZM19.1875 4.5L20.8125 4.5L20.8125 3.5L19.1875 3.5L19.1875 4.5ZM22.4375 4.5L24.0625 4.5L24.0625 3.5L22.4375 3.5L22.4375 4.5ZM25.6875 4.5L27.3125 4.5L27.3125 3.5L25.6875 3.5L25.6875 4.5ZM28.9375 4.5L30.5625 4.5L30.5625 3.5L28.9375 3.5L28.9375 4.5ZM32.1875 4.5L33.8125 4.5L33.8125 3.5L32.1875 3.5L32.1875 4.5ZM35.4375 4.5L37.0625 4.5L37.0625 3.5L35.4375 3.5L35.4375 4.5ZM38.6875 4.5L40.3125 4.5L40.3125 3.5L38.6875 3.5L38.6875 4.5ZM41.9375 4.5L43.5625 4.5L43.5625 3.5L41.9375 3.5L41.9375 4.5ZM45.1875 4.5L46.8125 4.5L46.8125 3.5L45.1875 3.5L45.1875 4.5ZM48.4375 4.5L50.0625 4.5L50.0625 3.5L48.4375 3.5L48.4375 4.5ZM51.6875 4.5L53.3125 4.5L53.3125 3.5L51.6875 3.5L51.6875 4.5ZM54.9375 4.5L56.5625 4.5L56.5625 3.5L54.9375 3.5L54.9375 4.5ZM58.1875 4.49999L59.8125 4.49999L59.8125 3.49999L58.1875 3.49999L58.1875 4.49999ZM61.4375 4.49999L63.0625 4.49999L63.0625 3.49999L61.4375 3.49999L61.4375 4.49999ZM64.6875 4.49999L66.3125 4.49999L66.3125 3.49999L64.6875 3.49999L64.6875 4.49999ZM67.9375 4.49999L69.5625 4.49999L69.5625 3.49999L67.9375 3.49999L67.9375 4.49999ZM71.1875 4.49999L72.8125 4.49999L72.8125 3.49999L71.1875 3.49999L71.1875 4.49999ZM74.4375 4.49999L76.0625 4.49999L76.0625 3.49999L74.4375 3.49999L74.4375 4.49999ZM77.6875 4.49999L79.3125 4.49999L79.3125 3.49999L77.6875 3.49999L77.6875 4.49999ZM80.9375 4.49999L82.5625 4.49999L82.5625 3.49999L80.9375 3.49999L80.9375 4.49999ZM84.1875 4.49999L85.8125 4.49999L85.8125 3.49999L84.1875 3.49999L84.1875 4.49999ZM87.4375 4.49999L89.0625 4.49999L89.0625 3.49999L87.4375 3.49999L87.4375 4.49999ZM90.6875 4.49999L91.5 4.49999L91.5 3.49999L90.6875 3.49999L90.6875 4.49999Z" fill="black"/>
</svg>
