<svg width="29" height="28" viewBox="0 0 29 28" fill="none" xmlns="http://www.w3.org/2000/svg">
<path d="M0 4C0 1.79086 1.79086 0 4 0H24C26.2091 0 28 1.79086 28 4V23C28 25.2091 26.2091 27 24 27H4C1.79086 27 0 25.2091 0 23V4Z" fill="#FFF9D7"/>
<path d="M0 0H28H0ZM29 23C29 25.7614 26.7614 28 24 28H5C2.23858 28 0 25.7614 0 23C0 24.6569 1.79086 26 4 26H24C25.6569 26 27 24.6569 27 23H29ZM0 27V0V27ZM24 0C26.7614 0 29 2.23858 29 5V23C29 25.7614 26.7614 28 24 28V26C25.6569 26 27 24.6569 27 23V4C27 1.79086 25.6569 0 24 0Z" fill="#EFCB00"/>
</svg>
