<svg width="14" height="16" viewBox="0 0 14 16" fill="none" xmlns="http://www.w3.org/2000/svg">
<path d="M6.65951 0.917593C6.60652 0.863164 6.54316 0.819903 6.47317 0.790363C6.40318 0.760824 6.32798 0.745605 6.25201 0.745605C6.17605 0.745605 6.10085 0.760824 6.03086 0.790363C5.96087 0.819903 5.89751 0.863164 5.84451 0.917593C5.73586 1.02916 5.67506 1.17874 5.67506 1.33447C5.67506 1.4902 5.73586 1.63978 5.84451 1.75134L11.9358 7.99884L5.84451 14.2476C5.78968 14.3037 5.74644 14.3701 5.71727 14.443C5.6881 14.5158 5.67356 14.5937 5.67449 14.6722C5.67542 14.7506 5.69179 14.8281 5.72268 14.9003C5.75357 14.9724 5.79837 15.0378 5.85451 15.0926C5.90799 15.1449 5.97125 15.1861 6.04068 15.2138C6.1101 15.2416 6.18432 15.2555 6.25909 15.2545C6.33386 15.2536 6.40771 15.2379 6.47642 15.2084C6.54513 15.1789 6.60735 15.1362 6.65951 15.0826L13.137 8.43509C13.2508 8.31838 13.3145 8.16183 13.3145 7.99884C13.3145 7.83585 13.2508 7.67931 13.137 7.56259L6.65951 0.917593ZM1.65951 0.917593C1.60652 0.863164 1.54316 0.819903 1.47317 0.790363C1.40318 0.760824 1.32798 0.745605 1.25201 0.745605C1.17605 0.745605 1.10085 0.760824 1.03086 0.790363C0.960871 0.819903 0.89751 0.863164 0.844514 0.917593C0.73586 1.02916 0.675058 1.17874 0.675058 1.33447C0.675058 1.4902 0.73586 1.63978 0.844514 1.75134L6.93576 7.99884L0.844514 14.2476C0.789681 14.3037 0.746445 14.3701 0.717272 14.443C0.688098 14.5158 0.673561 14.5937 0.67449 14.6722C0.675418 14.7506 0.691794 14.8281 0.722683 14.9003C0.753572 14.9724 0.798368 15.0378 0.854513 15.0926C0.907993 15.1449 0.971255 15.1861 1.04068 15.2138C1.1101 15.2416 1.18432 15.2555 1.25909 15.2545C1.33386 15.2536 1.40771 15.2379 1.47642 15.2084C1.54513 15.1789 1.60735 15.1362 1.65951 15.0826L8.13701 8.43509C8.25078 8.31838 8.31445 8.16183 8.31445 7.99884C8.31445 7.83585 8.25078 7.67931 8.13701 7.56259L1.65951 0.917593Z" fill="#EFCB00"/>
</svg>
