<svg width="26" height="30" viewBox="0 0 26 30" fill="none" xmlns="http://www.w3.org/2000/svg">
<path d="M12.32 0.834942C12.214 0.726084 12.0873 0.639561 11.9473 0.580483C11.8073 0.521404 11.6569 0.490967 11.505 0.490967C11.3531 0.490967 11.2027 0.521404 11.0627 0.580483C10.9227 0.639561 10.796 0.726084 10.69 0.834942C10.4727 1.05807 10.3511 1.35723 10.3511 1.66869C10.3511 1.98016 10.4727 2.27931 10.69 2.50244L22.8725 14.9974L10.69 27.4949C10.5803 27.6072 10.4939 27.74 10.4355 27.8857C10.3772 28.0314 10.3481 28.1871 10.35 28.3441C10.3518 28.501 10.3846 28.6561 10.4463 28.8003C10.5081 28.9446 10.5977 29.0753 10.71 29.1849C10.817 29.2895 10.9435 29.3719 11.0823 29.4274C11.2212 29.483 11.3696 29.5107 11.5192 29.5088C11.6687 29.507 11.8164 29.4756 11.9538 29.4166C12.0912 29.3576 12.2157 29.2721 12.32 29.1649L25.275 15.8699C25.5025 15.6365 25.6299 15.3234 25.6299 14.9974C25.6299 14.6715 25.5025 14.3584 25.275 14.1249L12.32 0.834942ZM2.32 0.834942C2.21401 0.726084 2.08729 0.639561 1.94731 0.580483C1.80733 0.521404 1.65694 0.490967 1.505 0.490967C1.35307 0.490967 1.20267 0.521404 1.0627 0.580483C0.922718 0.639561 0.795996 0.726084 0.690004 0.834942C0.472696 1.05807 0.351093 1.35723 0.351093 1.66869C0.351093 1.98016 0.472696 2.27931 0.690004 2.50244L12.8725 14.9974L0.690004 27.4949C0.580339 27.6072 0.493866 27.74 0.43552 27.8857C0.377172 28.0314 0.348099 28.1871 0.349957 28.3441C0.351812 28.501 0.384565 28.6561 0.446342 28.8003C0.508121 28.9446 0.597712 29.0753 0.710003 29.1849C0.816963 29.2895 0.943487 29.3719 1.08233 29.4274C1.22117 29.483 1.36961 29.5107 1.51915 29.5088C1.66869 29.507 1.8164 29.4756 1.95382 29.4166C2.09124 29.3576 2.21567 29.2721 2.32 29.1649L15.275 15.8699C15.5025 15.6365 15.6299 15.3234 15.6299 14.9974C15.6299 14.6715 15.5025 14.3584 15.275 14.1249L2.32 0.834942Z" fill="#005F98"/>
</svg>
