<svg width="200" height="137" viewBox="0 0 200 137" fill="none" xmlns="http://www.w3.org/2000/svg">
<path d="M98.0927 78.3817C98.0727 78.3633 98.0515 78.3463 98.0292 78.3307C98.5375 77.4089 99.1042 76.5132 99.5399 75.5587C100.415 73.6366 100.995 71.6284 100.549 69.4922C100.366 68.6161 99.9665 67.7856 99.6488 66.8899C99.7785 66.8089 99.9497 66.6901 100.13 66.5739C102.255 65.2133 104.222 63.6595 105.899 61.7545C107.761 59.6392 109.18 57.2745 109.805 54.4854C109.85 54.2791 109.723 54.0323 109.675 53.8051C109.53 53.9775 109.307 54.1277 109.254 54.3274C108.815 56.0148 108.109 57.6198 107.162 59.0803C105.292 61.932 102.787 64.1074 99.9639 65.9406C99.3467 66.3402 98.6957 66.6888 98.0798 67.091C97.9501 67.1746 97.9086 67.3874 97.8204 67.5402C97.9501 67.5937 98.1161 67.7295 98.1887 67.689C98.7074 67.4044 98.9149 67.8078 99.1223 68.1095C100.005 69.4008 100.018 70.8515 99.8511 72.3466C99.405 70.5538 98.5998 69.0953 96.6482 68.6318C97.8619 69.7286 98.7333 71.0082 98.9265 72.6795C99.1133 74.3013 99.0251 75.8655 98.0603 77.4233C98.0824 73.7071 96.879 71.1048 94.8587 70.3384C96.56 73.2279 96.8375 73.8795 96.8129 74.9345C95.8118 73.0477 95.5356 72.6991 94.7627 72.3479C96.2306 74.3744 96.7908 76.5981 96.1632 79.0646C95.8779 80.1901 94.7368 81.1603 93.6411 81.1538C94.9962 79.5595 95.2373 77.7588 94.7589 75.812C95.4578 76.6907 95.4643 77.7497 95.5784 78.968C95.6886 78.6768 95.734 78.5762 95.7612 78.4796C96.2553 76.6294 95.4254 74.5963 93.7331 73.5178C93.0485 73.0791 92.3625 72.6456 91.6713 72.2056C92.8267 70.8398 92.8267 70.8398 92.4727 70.2744C92.4105 70.4049 92.3703 70.5146 92.3197 70.6126C91.7427 71.725 90.7805 72.3466 89.6355 72.72C89.4669 72.7749 89.2283 72.814 89.0909 72.7357C88.1832 72.2212 87.2858 71.6728 86.3885 71.1362C86.3794 71.1492 86.3963 71.1009 86.4287 71.0826C86.5583 71.0069 86.6984 70.952 86.8307 70.8711C89.6147 69.3042 91.8205 67.155 93.361 64.3333C93.4738 64.1257 93.5062 63.8724 93.5762 63.6399L93.3376 63.5472C93.16 63.8253 92.9746 64.0969 92.8073 64.3816C91.4418 66.711 89.6951 68.65 87.2923 69.9401C85.5326 70.8828 83.747 71.2772 81.8227 70.4963C81.0641 70.1895 80.7023 69.6032 80.5467 68.9295C80.7814 68.6683 80.9759 68.4803 81.1406 68.2675C82.0263 67.1249 82.8795 65.955 83.7976 64.8386C84.2074 64.3424 84.7715 63.9768 85.2046 63.4963C85.3472 63.337 85.4172 62.8682 85.3174 62.7808C85.204 62.6996 85.0754 62.6424 84.9394 62.6128C84.8035 62.5832 84.6629 62.5817 84.5264 62.6084C84.2761 62.6645 84.0544 62.8996 83.8443 63.085C83.5396 63.3553 83.266 63.3892 82.8523 63.2456C81.1484 62.6502 79.416 62.3734 77.6654 63.0967C77.5376 63.1259 77.4073 63.1421 77.2764 63.1451C77.5746 60.7725 77.9455 58.5149 79.6209 56.7274C80.7711 55.5 82.3673 55.6227 83.1998 57.093C83.5888 57.772 83.747 58.5893 83.9467 59.361C84.0764 59.8716 84.0972 60.4056 84.1672 60.9397C84.215 60.9087 84.2558 60.8679 84.2868 60.82C84.3179 60.7721 84.3385 60.7181 84.3474 60.6616C84.6807 59.3806 84.8544 58.0266 85.3848 56.8331C86.3677 54.6134 87.5607 52.489 88.659 50.3201C89.3074 49.0431 89.9415 47.7596 90.5821 46.4787L90.4343 46.4029C90.286 46.739 90.1167 47.0652 89.9272 47.3796C89.1129 48.577 88.3569 49.8305 87.4246 50.9299C86.5869 51.9184 85.4652 52.5778 84.0997 52.6156C83.3036 52.6378 82.803 52.3545 82.6733 51.571C82.5537 50.8296 82.5841 50.0714 82.7628 49.3421C83.1518 47.8288 83.747 46.369 84.1296 44.8543C84.3319 44.0565 84.3254 43.1869 84.3007 42.3538C84.28 41.6644 84.101 40.9789 83.9792 40.2934C83.9372 40.1587 83.8788 40.0298 83.8054 39.9095L83.5292 39.9722C83.6057 40.5715 83.7406 41.1709 83.7354 41.7689C83.7354 42.1071 83.5798 42.6228 83.3463 42.7312C83.1129 42.8396 82.5216 42.6933 82.3479 42.4609C82.0431 42.0213 81.8401 41.5184 81.754 40.9894C81.4817 39.4982 82.06 38.1833 82.6785 36.8711C83.8923 34.2962 85.1021 31.7278 85.4172 28.8251C85.5923 27.223 84.6729 25.9656 83.0689 25.9329C82.8329 25.9329 82.5981 25.9329 82.3621 25.9329L82.3232 25.7501C82.7278 25.5621 83.1142 25.297 83.5396 25.2004C84.9245 24.8857 86.159 25.378 87.3649 26.1458C87.5983 24.5266 87.1613 23.3867 85.4198 22.8553C86.9214 22.4518 88.143 22.5028 89.2672 23.3319C89.7133 23.661 89.8754 24.0226 89.5927 24.5488C89.4844 24.7621 89.4258 24.9975 89.4215 25.237C89.4215 25.4002 89.5421 25.566 89.6096 25.7305C89.699 25.5882 89.7976 25.4524 89.8754 25.3036C90.1114 24.8531 90.2268 24.2381 90.5925 23.9782C91.4081 23.4011 92.3431 22.9911 93.2404 22.5419C93.3621 22.4999 93.4925 22.49 93.619 22.5132C92.9823 24.1036 91.4794 25.0307 90.6288 26.4905C91.5922 25.8376 92.4014 24.9798 93.3869 24.4457C94.4152 23.8908 95.5914 23.55 96.7454 23.3071C97.9052 23.0764 99.0852 22.9653 100.267 22.9754C101.455 22.9641 102.613 23.3508 103.558 24.0749C103.302 24.0876 103.046 24.0758 102.792 24.0396C101.145 23.909 99.6449 24.2211 98.4921 25.5268C98.3534 25.6848 98.2976 25.9186 98.1303 26.2646C102.079 24.4953 108.035 27.5991 108.893 30.5487L106.091 29.7744L106.004 29.9676C107.539 30.6989 108.521 31.9262 109.156 33.4579C109.569 34.4528 109.881 35.4073 109.197 36.4767C108.723 37.2132 108.744 38.1037 109.232 38.8989C109.298 39.0059 109.491 39.0294 109.636 39.0947C109.636 38.9642 109.673 38.8009 109.615 38.6952C109.191 37.9 109.306 37.1166 109.724 36.3893C110.038 35.8442 110.414 35.338 110.845 34.8811C112.428 33.2124 114.45 32.2879 116.584 31.5841C117.492 31.2864 118.411 31.0462 119.324 30.7798L119.429 30.9417C116.16 33.2477 113.427 36.0432 111.354 39.5596C113.517 39.8207 116.541 42.2063 116.79 43.6335L112.584 42.0366C114.089 44.5501 115.116 47.1668 117.184 49.1097L117.035 49.3291L114.382 48.0233C115.465 49.9376 116.138 51.8622 116.043 53.924C115.873 57.58 115.578 61.2178 115.294 64.8608C115.217 65.8388 114.99 66.805 114.832 67.7765C114.18 65.6505 113.232 63.6283 112.017 61.7701C112.637 64.2105 112.844 66.6627 112.528 69.1567C112.212 71.6506 111.439 73.9344 109.853 76.0222C109.334 73.7176 108.588 71.8138 107.895 70.9494C107.934 71.4809 107.997 71.994 108.005 72.5163C108.043 74.7113 107.486 76.6947 105.9 78.2903C105.095 79.0985 104.159 79.5647 102.954 79.5438C101.267 79.5375 99.6031 79.1398 98.0927 78.3817ZM100.413 41.7663C100.756 40.5689 101.288 39.5465 102.334 38.9067C103.761 38.0371 105.234 38.0815 106.751 38.878C106.71 38.6521 106.633 38.4157 106.492 38.3557C105.952 38.1507 105.4 37.8948 104.838 37.8556C102.395 37.6832 100.606 39.143 99.9367 41.7728C99.702 42.696 99.4582 43.6178 99.2559 44.5475C99.2105 44.7551 99.322 44.9967 99.3622 45.2226C99.5619 45.0789 99.8355 44.9784 99.9445 44.7825C100.183 44.3608 100.333 43.892 100.549 43.388C101.65 45.0606 102.959 45.6822 104.351 45.0854C104.974 44.8243 105.549 44.3138 106 43.7902C106.649 43.042 106.475 42.0927 106.323 41.163C106.693 41.2492 107.018 41.368 107.347 41.3824C107.508 41.3889 107.678 41.2022 107.843 41.1043C107.727 40.9502 107.642 40.7256 107.489 40.659C107.114 40.4971 106.698 40.4383 106.322 40.2869C104.058 39.3846 102.091 39.6653 100.547 41.7127C100.532 41.7389 100.505 41.7388 100.413 41.7663ZM92.0993 30.5252C92.321 29.6543 92.8955 29.3383 93.5075 29.0393C93.6683 28.9609 93.7591 28.7403 93.881 28.5836C93.7111 28.5274 93.536 28.4125 93.3701 28.4243C91.3199 28.5548 89.6783 29.4375 88.5838 31.2094C88.264 31.7038 88.0524 32.261 87.9629 32.8441C87.8735 33.4272 87.9083 34.0228 88.0651 34.5913C88.1261 34.8198 88.2869 35.0208 88.4023 35.235L88.6616 35.1723C88.1663 33.7987 88.2791 32.506 89.0597 31.3126C89.8404 30.1191 90.9024 29.3696 92.3845 29.0275C90.6301 31.1102 90.2566 32.2266 90.9115 33.1132C91.6273 32.5282 92.2899 31.8518 93.0744 31.3818C93.8278 30.9313 95.0104 31.0488 95.8312 31.4405C94.9028 31.7017 93.9912 31.9393 93.4971 32.9865C93.7163 32.9865 93.8641 33.0283 93.9056 32.9865C94.6836 32.0477 95.7703 31.8975 96.8881 31.8022C97.0177 31.7905 97.1474 31.6351 97.2771 31.5411C97.1876 31.4105 97.1254 31.2486 97.0048 31.1741C95.5135 30.2484 93.9315 29.8358 92.0993 30.5252ZM87.9381 65.9263L87.9458 65.6455C87.7228 65.4693 87.5218 65.1977 87.2702 65.1376C87.1871 65.1105 87.0983 65.1055 87.0127 65.123C86.927 65.1406 86.8472 65.1801 86.7811 65.2377C86.715 65.2953 86.6648 65.3691 86.6353 65.452C86.6058 65.5349 86.5981 65.624 86.6128 65.7108C86.6465 65.9563 86.9474 66.318 87.1613 66.3441C87.3999 66.3728 87.6774 66.079 87.9381 65.9263ZM85.486 68.0964C85.1099 67.8522 84.8882 67.5937 84.6975 67.6159C84.5069 67.6381 84.3267 67.9293 84.1425 68.1029C84.3371 68.2884 84.5121 68.5808 84.7339 68.6252C84.8972 68.654 85.1268 68.3628 85.486 68.0964ZM84.7183 65.4105C84.4875 65.7187 84.2554 65.8962 84.2696 66.0477C84.2839 66.1992 84.529 66.3637 84.6729 66.5204C84.8259 66.3755 85.0736 66.2462 85.1047 66.079C85.1358 65.9119 84.918 65.7343 84.7183 65.4105Z" fill="white"/>
<path d="M98.0932 78.3814C99.6066 79.1416 101.274 79.5398 102.965 79.5449C104.17 79.5658 105.106 79.0996 105.911 78.2914C107.494 76.701 108.053 74.7123 108.016 72.5174C108.008 71.9951 107.944 71.4859 107.906 70.9505C108.599 71.8149 109.34 73.7187 109.864 76.0233C111.449 73.9341 112.224 71.6413 112.539 69.1577C112.854 66.6742 112.648 64.2116 112.028 61.7712C113.243 63.6294 114.191 65.6516 114.843 67.7776C115.001 66.8061 115.232 65.8399 115.305 64.8619C115.589 61.2189 115.884 57.5746 116.054 53.925C116.149 51.8633 115.476 49.9386 114.393 48.0244L117.046 49.3302L117.195 49.1108C115.121 47.1679 114.1 44.5512 112.595 42.0376L116.801 43.6346C116.555 42.2074 113.528 39.827 111.365 39.5607C113.44 36.0508 116.171 33.2553 119.44 30.9428L119.335 30.7809C118.427 31.0421 117.499 31.2875 116.595 31.5852C114.46 32.289 112.439 33.2135 110.856 34.8822C110.425 35.3391 110.049 35.8453 109.735 36.3903C109.316 37.1176 109.202 37.9011 109.626 38.6963C109.683 38.802 109.642 38.9574 109.647 39.0958C109.508 39.0318 109.309 39.007 109.242 38.9C108.755 38.1048 108.734 37.2143 109.207 36.4778C109.892 35.4084 109.58 34.4539 109.167 33.459C108.532 31.9273 107.55 30.7 106.015 29.9687L106.102 29.7755L108.904 30.5498C108.047 27.6001 102.091 24.4964 98.1412 26.2657C98.3085 25.9171 98.3642 25.6859 98.503 25.5279C99.6558 24.2222 101.156 23.9088 102.803 24.0407C103.057 24.0769 103.313 24.0887 103.569 24.076C102.624 23.3519 101.466 22.9652 100.278 22.9765C99.0961 22.9664 97.916 23.0775 96.7563 23.3082C95.6035 23.5511 94.4222 23.8918 93.3977 24.4468C92.4122 24.9808 91.6031 25.8452 90.6396 26.4916C91.4903 25.0318 92.9932 24.1047 93.6299 22.5143C93.5033 22.4911 93.3729 22.501 93.2512 22.543C92.3539 22.9987 91.4189 23.4087 90.6033 23.9793C90.2376 24.2405 90.1222 24.8542 89.8862 25.3047C89.8084 25.4535 89.7098 25.5893 89.6204 25.7316C89.5529 25.5671 89.4298 25.4013 89.4323 25.2381C89.4366 24.9986 89.4952 24.7632 89.6035 24.5499C89.8862 24.0277 89.7241 23.6621 89.278 23.333C88.1538 22.5039 86.9323 22.4529 85.4306 22.8564C87.1683 23.3878 87.6053 24.5277 87.3757 26.1469C86.1698 25.3791 84.9353 24.8868 83.5504 25.2015C83.1251 25.2981 82.7386 25.5632 82.3341 25.7512L82.373 25.934C82.609 25.934 82.8437 25.934 83.0797 25.934C84.6837 25.9667 85.6031 27.2241 85.4281 28.8262C85.113 31.7289 83.9031 34.2972 82.6894 36.8722C82.0708 38.1779 81.4925 39.4993 81.7648 40.9904C81.8509 41.5195 82.0539 42.0224 82.3587 42.462C82.5325 42.6944 83.1043 42.8537 83.3572 42.7323C83.61 42.6109 83.7462 42.1082 83.7462 41.77C83.7462 41.1719 83.6165 40.5726 83.54 39.9733L83.8162 39.9106C83.8902 40.0333 83.9486 40.1649 83.99 40.3023C84.1119 40.9878 84.2908 41.6733 84.3116 42.3628C84.3362 43.1958 84.3427 44.0602 84.1404 44.8633C83.7579 46.3779 83.1627 47.8377 82.7737 49.3511C82.595 50.0804 82.5645 50.8385 82.6842 51.5799C82.8139 52.3634 83.3092 52.6402 84.1106 52.6245C85.476 52.5867 86.5977 51.9273 87.4354 50.9388C88.3677 49.8394 89.1211 48.5885 89.9381 47.3885C90.1275 47.0742 90.2969 46.7479 90.4451 46.4119L90.5929 46.4876C89.9523 47.7685 89.3182 49.0521 88.6699 50.3291C87.5716 52.4979 86.3786 54.6223 85.3956 56.8421C84.8666 58.0355 84.6928 59.3895 84.3583 60.6705C84.3494 60.727 84.3287 60.781 84.2977 60.8289C84.2666 60.8769 84.2258 60.9176 84.178 60.9486C84.108 60.4263 84.0898 59.8805 83.9576 59.37C83.7579 58.5983 83.5958 57.7809 83.2106 57.1019C82.3781 55.6316 80.7819 55.5089 79.6317 56.7363C77.9563 58.5238 77.5854 60.7841 77.2872 63.154C77.4181 63.151 77.5485 63.1348 77.6762 63.1057C79.4281 62.3823 81.1605 62.6591 82.8631 63.2545C83.2768 63.3982 83.5504 63.3642 83.8551 63.0939C84.0652 62.9085 84.2869 62.6735 84.5372 62.6173C84.6738 62.5906 84.8143 62.5921 84.9503 62.6217C85.0863 62.6514 85.2148 62.7085 85.3282 62.7897C85.4281 62.8772 85.358 63.3459 85.2154 63.5052C84.7823 63.9857 84.2182 64.3513 83.8084 64.8475C82.8904 65.9639 82.0371 67.1339 81.1514 68.2764C80.9868 68.4892 80.7923 68.6786 80.5575 68.9384C80.7132 69.6069 81.0762 70.1932 81.8335 70.5053C83.7579 71.2887 85.5435 70.897 87.3031 69.949C89.7111 68.659 91.4527 66.7199 92.8181 64.3905C92.9854 64.1059 93.1708 63.8343 93.3485 63.5561L93.5871 63.6489C93.517 63.8813 93.4846 64.1346 93.3718 64.3422C91.8313 67.1639 89.6256 69.3171 86.8415 70.88C86.7118 70.9544 86.5705 71.0106 86.4395 71.0915C86.4071 71.1098 86.3902 71.1581 86.3993 71.1451C87.2966 71.6817 88.1901 72.2301 89.1017 72.7446C89.2391 72.8229 89.4777 72.7838 89.6463 72.7289C90.7913 72.3555 91.7535 71.734 92.3305 70.6215C92.3811 70.5235 92.4213 70.4204 92.4836 70.2833C92.8376 70.8487 92.8376 70.8487 91.6822 72.2145C92.3733 72.6545 93.0593 73.088 93.744 73.5267C95.4297 74.6118 96.2661 76.6448 95.772 78.4885C95.7448 78.5891 95.6994 78.6857 95.5892 78.9769C95.4751 77.7586 95.4686 76.6997 94.7697 75.8209C95.2482 77.7704 95.007 79.5684 93.6519 81.1627C94.7425 81.1627 95.8888 80.1964 96.174 79.0735C96.8017 76.6069 96.2415 74.3833 94.7736 72.3568C95.5516 72.708 95.8226 73.0567 96.8237 74.9435C96.8483 73.8884 96.5644 73.2369 94.8695 70.3473C96.8898 71.1137 98.0932 73.7161 98.0712 77.4322C99.0359 75.8745 99.1241 74.3102 98.9374 72.6885C98.7442 71.0145 97.8728 69.7349 96.659 68.6407C98.6106 69.1042 99.4159 70.5627 99.8619 72.3555C100.029 70.8617 100.016 69.4098 99.1332 68.1184C98.9257 67.8168 98.7143 67.4133 98.1995 67.6979C98.1269 67.7384 97.9557 67.6026 97.8313 67.5491C97.9142 67.3963 97.9609 67.1835 98.0906 67.0999C98.7065 66.6977 99.3575 66.3491 99.9748 65.9496C102.798 64.1215 105.303 61.941 107.173 59.0892C108.12 57.6287 108.826 56.0237 109.265 54.3364C109.318 54.1379 109.541 53.9877 109.686 53.8141C109.733 54.0413 109.86 54.288 109.816 54.4943C109.191 57.2834 107.772 59.6481 105.91 61.7634C104.233 63.6684 102.266 65.2223 100.141 66.5828C99.9605 66.6991 99.7828 66.8179 99.6596 66.8988C99.9773 67.7946 100.377 68.625 100.56 69.5012C101.006 71.6373 100.43 73.6456 99.5507 75.5676C99.115 76.5221 98.5483 77.4178 98.04 78.3397C97.8676 78.5133 97.6406 78.6596 97.5291 78.862C96.3621 81.0256 94.5103 82.1772 91.8404 81.796C90.9067 81.6654 90.2752 80.8989 90.4788 80.0763C90.5501 79.7864 90.8341 79.4012 91.087 79.3412C91.3813 79.272 91.7535 79.4978 92.0777 79.631C92.1386 79.6558 92.1308 79.8478 92.1555 79.9627C92.0401 79.9627 91.8961 80.0175 91.8157 79.9627C91.5369 79.7851 91.1881 79.4979 91.0182 79.9366C90.9067 80.2225 91.0092 80.72 91.2063 80.9733C91.6588 81.5505 92.6327 81.4747 93.071 80.8793C93.7621 79.9353 94.1317 78.9286 93.8399 77.7064C93.3861 75.8131 92.5289 74.258 90.6967 73.4131C90.4694 73.3245 90.2236 73.2953 89.9822 73.3283C90.7044 74.442 91.7094 75.3522 91.9428 76.6762L91.7146 76.8067C91.6186 76.6553 91.5266 76.5012 91.4254 76.3537C90.886 75.5702 90.3401 74.7868 89.8032 74.0033C89.5672 73.6586 89.2975 73.6377 88.9163 73.784C87.3887 74.3728 85.8417 74.4368 84.2934 73.8519C83.2716 73.4706 82.3941 72.7765 81.7842 71.8671C81.6546 71.6843 81.3654 71.5851 81.1359 71.5198C80.5809 71.3657 79.9559 71.3657 79.4631 71.1046C78.4257 70.5562 77.518 70.9335 76.6544 71.401C74.1271 72.7746 73.2699 75.1524 73.0015 77.8474C72.9898 77.9558 73.0171 78.0955 72.96 78.166C72.8397 78.2907 72.7067 78.4023 72.5632 78.499C72.4789 78.3684 72.3363 78.2378 72.3246 78.1073C72.3223 77.8449 72.3418 77.5829 72.383 77.3238C71.4428 77.8579 71.3988 79.947 72.3117 80.4719C72.8303 80.7657 73.1999 80.455 73.4372 80.0306C74.2152 78.6361 74.6419 77.1488 74.4746 75.5284C74.4629 75.4227 74.4383 75.3182 74.4214 75.2124L74.5978 75.1393C74.7962 75.5767 75.0802 75.9959 75.1761 76.4542C75.4951 77.9819 75.1294 79.4287 74.2943 80.6874C73.6058 81.7241 72.7136 82.6238 71.8422 83.6671C71.3988 82.0441 70.8671 80.5451 70.5974 79.0004C70.3056 77.3369 70.9942 75.9619 72.4271 75.0505C72.8314 74.8116 73.1525 74.4527 73.3464 74.0229C73.5773 73.5176 73.9066 73.058 74.1063 72.4403C72.8589 73.2316 71.5764 73.9733 70.3717 74.8272C68.236 76.3432 66.7409 78.3436 66.1198 80.9472C66.0835 81.1026 65.8604 81.2084 65.7308 81.3389C65.6504 81.1457 65.4909 80.9472 65.5077 80.7579C65.5401 80.4014 65.6711 80.0541 65.7878 79.5932C65.0318 79.8047 64.6687 80.2826 64.4522 80.8872C64.2253 81.5204 64.1332 82.1929 64.5702 82.7609C64.9436 83.244 65.4092 83.0142 65.7567 82.6852C66.8836 81.6197 67.7018 80.3583 68.0234 78.811C68.0545 78.6635 68.0882 78.5173 68.1245 78.371C68.1245 78.3593 68.1621 78.3567 68.2192 78.3371C68.6393 79.1688 68.5563 80.0162 68.2425 80.8401C67.7355 82.1694 66.9704 83.3093 65.7308 84.0705C64.9229 84.5667 64.1202 85.0707 63.2488 85.6126C63.0997 83.7702 63.0206 81.9748 63.5082 80.2278C63.9179 78.7666 64.9709 77.9153 66.4284 77.551C66.6631 77.4936 66.9549 77.393 67.0768 77.2141C68.437 75.3104 70.2862 74.0046 72.2637 72.8504C74.1504 71.747 76.0449 70.6541 78.3168 70.2141C77.4636 68.9501 77.1329 67.617 77.3909 66.1898C77.496 65.6088 77.5089 65.0799 77.2457 64.555C76.7698 63.6045 76.7737 62.5873 77.0655 61.6263C77.6619 59.6559 78.2701 57.679 79.0533 55.7792C79.8962 53.7331 80.9803 51.7889 81.888 49.7728C82.4482 48.5271 82.8891 47.2266 83.3403 45.9353C83.4026 45.759 83.2677 45.4508 83.1315 45.2824C81.6688 43.41 80.9608 41.3156 81.4095 38.9457C81.5599 38.1518 81.9814 37.4101 82.2407 36.7455C81.1813 36.7625 80.0739 36.8839 78.9898 36.7795C74.979 36.3877 71.7281 34.5218 69.1839 31.4129C68.3048 30.3396 67.7575 29.073 67.7783 27.6354C67.7861 27.2229 67.8574 26.8141 67.9897 26.4237C68.2244 25.7303 68.7677 25.4065 69.4913 25.4222C70.7024 25.4496 71.6957 25.9967 72.5814 26.7671C72.9574 27.0935 73.3594 27.4199 73.6499 27.8117C74.8973 29.4699 76.6492 30.0823 78.5917 30.0915C80.6665 30.1006 82.727 29.9152 84.7563 29.816C85.2167 28.2856 85.0507 27.3442 84.2688 26.7867C83.3027 26.0972 82.3341 26.4367 81.3265 26.9525C81.8452 24.768 83.5309 24.3084 86.918 25.2746C87.1851 24.1321 85.9377 23.2064 84.794 23.4466C84.5956 23.4897 84.3738 23.4231 84.1625 23.4061C84.3051 23.1959 84.4153 22.9491 84.5982 22.7846C84.7737 22.6204 84.9933 22.5119 85.2297 22.4725C85.996 22.3916 86.149 21.8471 86.3059 21.2282C87.1722 17.815 87.1981 14.3326 87.1358 10.8476C87.0972 9.78519 86.999 8.72584 86.8415 7.67464C86.7209 6.75018 86.2152 5.98632 85.5305 5.40658C84.4044 4.42739 83.2229 3.51488 81.9917 2.67367C81.3888 2.27281 80.5874 2.18142 79.8871 1.91766C79.6641 1.83279 79.4787 1.64345 79.2764 1.50243C79.4242 1.29482 79.5266 0.987965 79.7263 0.893952C82.3924 -0.353024 85.0559 -0.302086 87.6455 1.08852C90.6837 2.71938 92.3785 5.46664 93.5209 8.60824C95.0342 12.7683 95.1444 17.0315 94.3171 21.347C94.2886 21.4971 94.2601 21.646 94.238 21.7962C94.2387 21.8513 94.2461 21.9061 94.2601 21.9594L94.9305 22.244L93.329 23.7104L93.4094 23.7913C94.5415 23.4649 95.6787 23.1554 96.8004 22.7937C96.9754 22.7376 97.1116 22.4647 97.2062 22.2623C98.8258 18.8295 100.617 15.5195 103.323 12.7892C106.145 9.9427 109.362 7.65897 112.888 5.80222C115.729 4.30846 118.626 2.97661 121.821 2.40731C125.466 1.75444 129.082 1.75444 132.692 2.61492C132.855 2.65278 132.978 2.85518 133.12 2.98184C132.952 3.11241 132.803 3.32263 132.613 3.37356C130.987 3.79923 129.281 4.01205 127.735 4.63358C121.324 7.20457 116.664 11.6845 113.803 18.0317C112.386 21.1759 111.495 24.4429 111.444 27.9253C111.416 28.7301 111.67 29.5193 112.16 30.1555C112.679 30.8436 113.197 31.5278 113.654 32.1141C115.941 31.4038 118.209 30.7117 120.466 29.9883C120.807 29.88 121.085 29.5875 121.421 29.4504C122.459 29.0299 123.469 28.4933 124.546 28.2752C126.21 27.9396 127.117 28.8549 126.948 30.5681C126.731 32.7552 125.736 34.5597 123.985 35.8694C122.292 37.123 120.409 38.093 118.409 38.742C117.937 38.8974 117.78 39.1259 117.82 39.6233C117.999 41.8966 118.26 44.1529 119.636 46.0658C120.108 46.7187 120.75 47.2567 121.312 47.8495C121.411 47.9526 121.502 48.0649 121.716 48.3078L119.349 47.9696C120.405 50.7586 121.887 53.3753 121.891 56.4281C121.891 56.9661 121.788 57.5041 121.729 58.0812L118.313 52.759H118.106C117.883 53.8506 117.691 54.9487 117.427 56.0234C117.213 56.9073 117.482 57.5824 117.997 58.3058C120.77 62.1969 123.16 66.293 124.321 71.0054C124.352 71.1359 124.408 71.2469 124.509 71.5277C133.115 63.1788 137.262 53.1429 136.273 41.2033C135.282 29.2388 129.438 20.0595 119.644 13.2906C119.798 13.1 119.937 12.908 120.097 12.737C120.511 12.2956 120.934 11.8634 121.434 11.3424C131.786 18.6415 137.93 28.4632 138.882 41.1758C139.931 55.1812 134.603 66.5384 123.805 75.5846C122.18 71.3448 120.9 67.1195 118.681 63.3107L118.514 63.3498C118.581 63.7154 118.6 64.0993 118.724 64.444C120.4 69.0598 119.414 73.2329 116.692 77.2402C116.782 75.9946 116.863 74.8599 116.945 73.7239L116.686 73.6678C116.585 73.8636 116.481 74.0595 116.382 74.254C115.428 76.1722 114.288 77.9597 112.767 79.477C110.398 81.8456 107.513 83.0155 104.209 83.1435C102.029 83.2284 99.8451 83.2205 97.6627 83.2741C97.0623 83.2884 96.4632 83.3628 95.8058 83.4137C96.3672 82.646 96.8808 81.9056 97.4422 81.2031C97.5576 81.0595 97.8481 80.9981 98.0582 80.9981C98.9866 80.9981 99.9164 81.0334 100.845 81.0465C101.07 81.0465 101.296 81.0112 101.562 80.989C100.694 80.4537 99.8684 79.994 99.0982 79.4496C98.6962 79.1727 98.42 78.7418 98.0932 78.3814ZM119.41 7.2803L119.519 7.54145C119.203 7.75167 118.893 7.97105 118.571 8.17213C115.358 10.1856 112.702 12.7422 110.871 16.1162C109.991 17.7366 109.36 19.438 109.185 21.2882C109.104 22.1552 109.617 23.2246 110.12 23.286C110.595 23.3435 111.334 22.5783 111.571 21.7779C112.308 19.2482 113.374 16.8278 114.741 14.5794C118.291 8.77929 123.352 4.99136 129.838 3.10718C129.921 3.08237 130.002 3.0458 130.118 3.00141C130.026 2.94004 129.989 2.90218 129.956 2.89435C129.827 2.86823 129.697 2.84734 129.567 2.83167C126.549 2.47521 123.539 2.62014 120.629 3.4519C114.405 5.229 108.968 8.43587 104.28 12.925C103.843 13.3428 103.306 13.7515 103.083 14.279C102.488 15.684 102.09 17.1699 102.278 18.7264C102.505 20.587 103.485 21.6081 105.064 21.7178C105.789 21.7641 106.51 21.5775 107.123 21.1849C107.736 20.7923 108.209 20.214 108.475 19.5333C110.467 14.2712 114.059 10.3932 118.776 7.50881C118.979 7.41131 119.192 7.33476 119.41 7.2803ZM80.3591 1.48545C82.3872 1.7923 83.8071 2.90349 85.2699 4.01989L83.9472 1.99339C85.7017 3.38138 86.9932 5.09712 87.6779 7.22416C88.3826 9.37711 88.7863 11.6184 88.8774 13.8834C88.9448 15.6657 89.0174 17.4507 89.1899 19.2239C89.3312 20.6797 90.7628 21.3365 92.0427 20.6367C92.7546 20.2449 93.1436 19.6117 93.4328 18.8948C94.0215 17.4272 94.1135 15.9021 93.9696 14.3391C93.6649 11.0343 92.7662 7.93317 90.9106 5.15979C89.2249 2.64495 86.975 1.02844 83.8914 0.812997C82.6754 0.71364 81.4552 0.94593 80.3591 1.48545ZM84.794 30.2116C83.3066 30.3278 81.9788 30.4858 80.6444 30.5198C79.3101 30.5537 77.9498 30.4636 76.6803 30.4297C78.8402 31.5287 81.1661 32.2598 83.5634 32.5933C83.6824 32.5902 83.7989 32.5576 83.9025 32.4984C84.0061 32.4392 84.0936 32.3551 84.1573 32.2538C84.4036 31.6283 84.5631 30.9755 84.7927 30.2064L84.794 30.2116ZM77.8098 66.4392C77.837 66.3805 77.7955 66.4392 77.7864 66.494C77.6153 67.775 78.0134 68.9044 78.7447 69.9203C79.1337 70.4517 79.9585 70.5392 80.0259 70.1031C80.105 69.5886 80.0829 68.9097 79.8041 68.5205C79.2504 67.7449 78.4919 67.126 77.8085 66.434L77.8098 66.4392ZM88.4624 73.0436C88.4793 72.9718 88.4974 72.9 88.5156 72.8295C87.9087 72.5148 87.3135 72.1766 86.6911 71.8946C86.0686 71.6125 85.3943 71.3723 84.7045 71.7092C84.4994 71.8219 84.3003 71.9452 84.108 72.0787C84.2843 72.3307 84.4062 72.7041 84.6461 72.8138C85.8832 73.3753 87.1709 73.3622 88.4611 73.0384L88.4624 73.0436ZM81.3304 63.3407L80.481 63.9779C80.7637 64.1437 81.0412 64.4297 81.3304 64.4414C81.6196 64.4532 81.8841 64.1803 82.1616 64.021L81.3304 63.3407Z" fill="#4E4E4E"/>
<path d="M73.2527 69.4038L70.964 70.7435C65.755 64.9042 62.4743 58.1327 61.3021 50.3845C60.0611 42.1831 61.2334 34.3239 64.8629 26.8643C64.9926 27.8866 64.9368 28.9613 65.2804 29.887C65.6993 31.0165 65.5398 31.9658 65.2013 33.0508C62.5119 41.6382 62.8616 50.1068 66.2504 58.4565C67.7759 62.1888 69.925 65.6304 72.6044 68.6321C72.8105 68.871 73.0115 69.1191 73.2527 69.4038Z" fill="#4E4E4E"/>
<path d="M84.0425 8.31201C84.1035 9.28217 84.1903 10.0983 84.1722 10.913C84.1722 11.0906 83.8312 11.3139 83.6042 11.4353C80.3935 13.0544 77.4435 15.0653 74.8954 17.6075C73.351 19.1496 71.9907 20.8719 70.5319 22.508C70.3672 22.6921 70.0871 22.9127 69.8836 22.8918C68.7491 22.7596 67.6061 23.0529 66.6729 23.7158C70.8548 16.8489 76.598 11.7735 84.0425 8.31201Z" fill="#4E4E4E"/>
<path d="M88.6784 82.018C87.8615 81.7359 86.9045 81.4369 85.9709 81.0765C83.3829 80.0984 80.9154 78.8234 78.6171 77.2768C78.3746 77.111 78.2203 76.7624 78.1088 76.4673C77.9135 75.9396 77.7528 75.3997 77.6277 74.8508C77.581 74.6471 77.581 74.3402 77.699 74.2083C77.9195 73.9642 78.1659 73.8166 78.5847 74.0778C80.4494 75.2529 82.3271 76.4059 84.2566 77.4623C85.3303 78.0498 86.5103 78.4468 87.6553 78.892C88.0106 79.0304 88.0936 79.1897 88.1403 79.5828C88.235 80.3884 88.4865 81.1901 88.6784 82.018Z" fill="#4E4E4E"/>
<path d="M107.359 5.65848C106.374 6.39622 105.521 7.05561 104.636 7.67453C104.47 7.79205 104.185 7.79335 103.963 7.76985C101.427 7.49698 98.8691 7.48123 96.3294 7.72284C96.2158 7.71796 96.1051 7.68607 96.0061 7.62979C95.9072 7.5735 95.8229 7.49442 95.7601 7.39902C95.4269 6.74615 95.1584 6.05411 94.8213 5.27197C98.9941 4.72127 103.228 4.85179 107.359 5.65848Z" fill="#4E4E4E"/>
<path d="M100.413 41.766C100.505 41.7373 100.532 41.7373 100.542 41.7242C102.086 39.6769 104.053 39.3961 106.317 40.2984C106.697 40.4498 107.113 40.5086 107.484 40.6705C107.637 40.7371 107.722 40.9617 107.838 41.1158C107.673 41.2137 107.503 41.4004 107.342 41.3939C107.013 41.3795 106.694 41.2633 106.318 41.1745C106.47 42.099 106.641 43.0535 105.995 43.8017C105.544 44.324 104.969 44.8306 104.346 45.097C102.954 45.6911 101.645 45.0695 100.544 43.3995C100.332 43.9035 100.178 44.3723 99.9395 44.794C99.8305 44.9899 99.5569 45.0904 99.3572 45.2341C99.317 45.0082 99.2055 44.7666 99.2509 44.559C99.4532 43.6293 99.697 42.7075 99.9317 41.7843C100.601 39.1506 102.395 37.6908 104.833 37.8671C105.395 37.9063 105.947 38.1622 106.487 38.3672C106.629 38.422 106.706 38.6584 106.746 38.8895C105.229 38.093 103.764 38.0486 102.329 38.9182C101.288 39.5424 100.756 40.5634 100.413 41.766ZM102.652 40.9982L102.503 40.8677C102.062 41.3286 101.58 41.7569 101.206 42.2648C101.042 42.4868 101 42.8942 101.066 43.1788C101.378 44.5107 103.605 45.52 104.819 44.2613C102.997 44.1529 101.674 42.9059 102.652 40.9982ZM104.835 42.3902C105.139 41.9776 105.413 41.7647 105.46 41.5101C105.481 41.4247 105.481 41.3351 105.458 41.2499C105.435 41.1648 105.391 41.087 105.33 41.0239C105.269 40.9609 105.192 40.9147 105.108 40.8899C105.024 40.865 104.936 40.8623 104.85 40.882C104.614 40.9317 104.302 41.2555 104.274 41.4866C104.247 41.7177 104.552 41.9619 104.835 42.3915V42.3902Z" fill="#4E4E4E"/>
<path d="M92.0988 30.5251C93.9311 29.8357 95.5131 30.2509 97.0121 31.178C97.1327 31.2524 97.195 31.4208 97.2844 31.5449C97.1548 31.6337 97.0251 31.789 96.8954 31.806C95.7815 31.9013 94.7 32.0515 93.9129 32.9903C93.8714 33.0386 93.7236 32.9903 93.5045 32.9903C93.992 31.9457 94.9036 31.7081 95.8386 31.4443C95.0177 31.0526 93.8351 30.9351 93.0817 31.3856C92.2972 31.8556 91.6346 32.532 90.9188 33.117C90.2704 32.2304 90.6374 31.114 92.3919 29.0313C90.9097 29.3734 89.8425 30.1321 89.0671 31.3164C88.2916 32.5007 88.1736 33.7973 88.669 35.1761L88.4096 35.2388C88.2942 35.0246 88.1334 34.8236 88.0725 34.5951C87.9157 34.0266 87.8808 33.431 87.9703 32.8479C88.0597 32.2648 88.2713 31.7076 88.5912 31.2132C89.6856 29.4413 91.3273 28.5587 93.3774 28.4281C93.5434 28.4163 93.7184 28.5312 93.8883 28.5874C93.7664 28.7441 93.6756 28.9647 93.5148 29.0431C92.895 29.3343 92.3205 29.6542 92.0988 30.5251Z" fill="#4E4E4E"/>
<path d="M87.9383 65.9255C87.679 66.0783 87.4002 66.3721 87.1603 66.3434C86.9463 66.3173 86.6416 65.9517 86.6117 65.7101C86.597 65.6233 86.6048 65.5342 86.6343 65.4513C86.6638 65.3684 86.714 65.2946 86.7801 65.237C86.8462 65.1793 86.9259 65.1398 87.0116 65.1223C87.0973 65.1048 87.186 65.1098 87.2692 65.1369C87.5208 65.1969 87.7218 65.4685 87.9448 65.6448L87.9383 65.9255Z" fill="#4E4E4E"/>
<path d="M85.486 68.0961C85.1268 68.3573 84.8999 68.6537 84.7339 68.6184C84.5121 68.5767 84.3371 68.2842 84.1426 68.0961C84.3267 67.9225 84.4966 67.6326 84.6976 67.6091C84.8986 67.5856 85.1099 67.8533 85.486 68.0961Z" fill="#4E4E4E"/>
<path d="M84.7182 65.4109C84.9179 65.7347 85.1306 65.9332 85.1072 66.0794C85.0839 66.2257 84.8284 66.3758 84.6754 66.5208C84.5315 66.3641 84.2864 66.2178 84.2721 66.0481C84.2579 65.8783 84.4874 65.719 84.7182 65.4109Z" fill="#4E4E4E"/>
<path d="M119.41 7.28035C119.194 7.33481 118.984 7.41092 118.783 7.50755C114.065 10.3984 110.473 14.27 108.481 19.5321C108.216 20.2128 107.742 20.7911 107.13 21.1837C106.517 21.5762 105.796 21.7628 105.071 21.7166C103.492 21.6069 102.511 20.5858 102.284 18.7251C102.096 17.1687 102.494 15.6828 103.09 14.2778C103.313 13.7555 103.849 13.3416 104.286 12.9237C108.974 8.43462 114.415 5.22775 120.636 3.45064C123.545 2.61889 126.555 2.47395 129.574 2.83042C129.704 2.84609 129.833 2.86697 129.963 2.89309C130.001 2.90092 130.033 2.93878 130.125 3.00015C130.008 3.04455 129.928 3.08112 129.845 3.10592C123.361 4.9901 118.298 8.77803 114.747 14.5781C113.38 16.826 112.314 19.2461 111.577 21.7753C111.339 22.5757 110.6 23.3422 110.126 23.2834C109.622 23.2221 109.109 22.1527 109.191 21.2857C109.367 19.4354 109.997 17.7341 110.876 16.1137C112.707 12.7409 115.363 10.183 118.576 8.16957C118.898 7.96848 119.208 7.74911 119.524 7.53889L119.41 7.28035Z" fill="white"/>
<path d="M80.3584 1.4855C81.4549 0.944171 82.676 0.710524 83.8933 0.809144C86.9769 1.02459 89.2319 2.63716 90.9125 5.15592C92.7681 7.9293 93.6667 11.0317 93.9714 14.3352C94.1154 15.9021 94.0233 17.4233 93.4346 18.8909C93.1454 19.6078 92.7564 20.245 92.0445 20.6328C90.762 21.3327 89.3305 20.6759 89.1917 19.22C89.0192 17.4468 88.9466 15.6619 88.8792 13.8795C88.7882 11.6145 88.3845 9.37324 87.6797 7.2203C86.9951 5.09325 85.7035 3.37751 83.949 1.98952L85.2717 4.01602C83.8051 2.90353 82.3852 1.79235 80.3584 1.4855Z" fill="white"/>
<path d="M84.7917 30.2068C84.5622 30.9759 84.4027 31.6287 84.1576 32.2489C84.0939 32.3503 84.0064 32.4343 83.9028 32.4935C83.7993 32.5527 83.6828 32.5853 83.5637 32.5884C81.1664 32.255 78.8406 31.5239 76.6807 30.4248C77.9502 30.4588 79.2988 30.5554 80.6448 30.5149C81.9908 30.4745 83.3043 30.323 84.7917 30.2068Z" fill="white"/>
<path d="M77.8079 66.4339C78.4913 67.1259 79.2499 67.7396 79.8023 68.5152C80.0811 68.9069 80.1031 69.5833 80.024 70.0977C79.9566 70.5339 79.1254 70.4464 78.7428 69.915C78.0115 68.8991 77.6134 67.7696 77.7846 66.4887C77.7936 66.43 77.8351 66.3751 77.8079 66.4339Z" fill="white"/>
<path d="M88.4609 73.0383C87.1641 73.3621 85.883 73.3752 84.6446 72.8085C84.4047 72.6988 84.2828 72.3254 84.1064 72.0734C84.2988 71.9399 84.4979 71.8166 84.7029 71.7039C85.3967 71.3683 86.058 71.6059 86.6895 71.8893C87.321 72.1726 87.9072 72.5095 88.514 72.8242C88.4959 72.8947 88.4777 72.9665 88.4609 73.0383Z" fill="white"/>
<path d="M81.324 63.3359L82.1552 64.0162C81.8777 64.169 81.595 64.4484 81.324 64.4367C81.0529 64.4249 80.7573 64.139 80.4746 63.9731L81.324 63.3359Z" fill="white"/>
<path d="M102.652 40.9982C101.674 42.9058 102.997 44.1528 104.815 44.2625C103.601 45.5212 101.373 44.5119 101.062 43.1801C100.996 42.8954 101.038 42.488 101.202 42.266C101.58 41.7581 102.062 41.3298 102.499 40.8689L102.652 40.9982Z" fill="white"/>
<path d="M104.835 42.3918C104.552 41.9635 104.25 41.7062 104.275 41.4882C104.299 41.2701 104.615 40.9333 104.851 40.8836C104.936 40.8639 105.025 40.8666 105.109 40.8915C105.193 40.9163 105.269 40.9625 105.33 41.0255C105.391 41.0886 105.436 41.1664 105.458 41.2515C105.481 41.3367 105.482 41.4263 105.46 41.5117C105.413 41.765 105.14 41.9778 104.835 42.3918Z" fill="white"/>
<path d="M10.619 129.685C10.2243 129.685 9.86667 129.549 9.546 129.278C9.22533 129.031 9.065 128.649 9.065 128.131V125.763C7.70833 125.615 6.48733 125.232 5.402 124.616C4.31667 123.999 3.46567 123.099 2.849 121.915C2.23233 120.731 1.924 119.214 1.924 117.364V107.115C1.924 105.018 2.30633 103.353 3.071 102.12C3.86033 100.886 4.90867 99.9983 6.216 99.4556C7.52333 98.8883 8.991 98.6046 10.619 98.6046C12.247 98.6046 13.7147 98.8883 15.022 99.4556C16.354 99.9983 17.4023 100.886 18.167 102.12C18.9317 103.353 19.314 105.018 19.314 107.115V117.364C19.314 119.214 19.0057 120.731 18.389 121.915C17.7723 123.099 16.9213 123.999 15.836 124.616C14.7507 125.232 13.5173 125.615 12.136 125.763V128.131C12.136 128.649 11.9757 129.031 11.655 129.278C11.359 129.549 11.0137 129.685 10.619 129.685ZM9.065 121.36V119.399C9.065 118.881 9.22533 118.511 9.546 118.289C9.86667 118.042 10.2243 117.919 10.619 117.919C11.0137 117.919 11.359 118.042 11.655 118.289C11.9757 118.511 12.136 118.881 12.136 119.399V121.36C12.876 121.113 13.4557 120.669 13.875 120.028C14.2943 119.362 14.504 118.474 14.504 117.364V107.115C14.504 105.659 14.1587 104.586 13.468 103.896C12.7773 103.18 11.8277 102.823 10.619 102.823C9.41033 102.823 8.46067 103.18 7.77 103.896C7.104 104.586 6.771 105.659 6.771 107.115V117.364C6.771 118.474 6.96833 119.362 7.363 120.028C7.75767 120.669 8.325 121.113 9.065 121.36ZM30.941 125.985C29.461 125.985 28.1043 125.639 26.871 124.949C25.6623 124.233 24.688 123.308 23.948 122.174C23.2326 121.014 22.875 119.781 22.875 118.474V109.594C22.875 109.224 23.1093 108.878 23.578 108.558C24.0713 108.237 24.6386 108.077 25.28 108.077C25.9213 108.077 26.4763 108.237 26.945 108.558C27.4136 108.878 27.648 109.224 27.648 109.594V118.474C27.648 119.041 27.796 119.571 28.092 120.065C28.388 120.558 28.7826 120.977 29.276 121.323C29.7693 121.643 30.312 121.804 30.904 121.804C31.5206 121.804 32.0633 121.643 32.532 121.323C33.0253 121.002 33.42 120.583 33.716 120.065C34.012 119.547 34.16 119.016 34.16 118.474V109.557C34.16 109.162 34.3943 108.817 34.863 108.521C35.3563 108.225 35.9113 108.077 36.528 108.077C37.2433 108.077 37.823 108.225 38.267 108.521C38.711 108.817 38.933 109.162 38.933 109.557V118.474C38.933 119.806 38.563 121.051 37.823 122.211C37.1076 123.345 36.1333 124.258 34.9 124.949C33.6913 125.639 32.3716 125.985 30.941 125.985ZM44.7943 125.652C44.1283 125.652 43.5733 125.491 43.1293 125.171C42.6853 124.85 42.4633 124.492 42.4633 124.098V109.557C42.4633 109.113 42.6853 108.755 43.1293 108.484C43.5733 108.212 44.1283 108.077 44.7943 108.077C45.4109 108.077 45.9166 108.212 46.3113 108.484C46.7306 108.755 46.9403 109.113 46.9403 109.557V111.074C47.2116 110.531 47.5693 110.025 48.0133 109.557C48.4819 109.063 49.0123 108.656 49.6043 108.336C50.1963 108.015 50.8253 107.855 51.4913 107.855H52.6383C53.1069 107.855 53.5139 108.064 53.8593 108.484C54.2046 108.878 54.3773 109.359 54.3773 109.927C54.3773 110.519 54.2046 111.024 53.8593 111.444C53.5139 111.838 53.1069 112.036 52.6383 112.036H51.4913C50.8006 112.036 50.1223 112.27 49.4563 112.739C48.8149 113.183 48.2846 113.812 47.8653 114.626C47.4459 115.415 47.2363 116.377 47.2363 117.512V124.098C47.2363 124.492 47.0019 124.85 46.5333 125.171C46.0646 125.491 45.4849 125.652 44.7943 125.652ZM65.9953 125.985C64.8359 125.985 63.7876 125.689 62.8503 125.097C61.9129 124.505 61.2469 123.826 60.8523 123.062V124.098C60.8523 124.492 60.6426 124.85 60.2233 125.171C59.8286 125.491 59.3229 125.652 58.7063 125.652C58.0403 125.652 57.4853 125.491 57.0413 125.171C56.5973 124.85 56.3753 124.492 56.3753 124.098V99.3076C56.3753 98.8636 56.5973 98.5059 57.0413 98.2346C57.4853 97.9633 58.0403 97.8276 58.7063 97.8276C59.3969 97.8276 59.9766 97.9633 60.4453 98.2346C60.9139 98.5059 61.1483 98.8636 61.1483 99.3076V110.667C61.5429 109.951 62.1473 109.31 62.9613 108.743C63.7753 108.151 64.7619 107.855 65.9213 107.855C67.1299 107.855 68.2276 108.2 69.2143 108.891C70.2009 109.557 70.9903 110.457 71.5823 111.592C72.1743 112.726 72.4703 113.984 72.4703 115.366V118.4C72.4703 119.707 72.1743 120.94 71.5823 122.1C70.9903 123.259 70.2009 124.196 69.2143 124.912C68.2523 125.627 67.1793 125.985 65.9953 125.985ZM64.4783 121.804C65.0703 121.804 65.6129 121.643 66.1063 121.323C66.5996 120.977 66.9819 120.546 67.2533 120.028C67.5493 119.51 67.6973 118.967 67.6973 118.4V115.366C67.6973 114.798 67.5493 114.268 67.2533 113.775C66.9819 113.281 66.5996 112.874 66.1063 112.554C65.6129 112.208 65.0579 112.036 64.4413 112.036C63.9233 112.036 63.4053 112.171 62.8873 112.443C62.3939 112.714 61.9746 113.096 61.6293 113.59C61.3086 114.083 61.1483 114.675 61.1483 115.366V119.066C61.1483 119.312 61.2963 119.658 61.5923 120.102C61.8883 120.521 62.2829 120.916 62.7763 121.286C63.2943 121.631 63.8616 121.804 64.4783 121.804ZM79.2988 125.985C77.9915 125.985 76.8568 125.59 75.8948 124.801C74.9575 123.987 74.4888 122.741 74.4888 121.064C74.4888 119.658 74.8465 118.56 75.5618 117.771C76.3018 116.981 77.3131 116.426 78.5958 116.106C79.9031 115.785 81.4078 115.625 83.1098 115.625H84.6268V115.144C84.6268 114.601 84.5158 114.071 84.2938 113.553C84.0965 113.035 83.7635 112.603 83.2948 112.258C82.8508 111.912 82.2095 111.74 81.3708 111.74C80.4335 111.74 79.7058 111.838 79.1878 112.036C78.6945 112.208 78.3121 112.393 78.0408 112.591C77.7695 112.788 77.4735 112.887 77.1528 112.887C76.6348 112.887 76.2278 112.628 75.9318 112.11C75.6605 111.592 75.5248 111.061 75.5248 110.519C75.5248 110.001 75.8331 109.544 76.4498 109.15C77.0911 108.73 77.8681 108.41 78.7808 108.188C79.6935 107.966 80.5815 107.855 81.4448 107.855C83.3688 107.855 84.9105 108.2 86.0698 108.891C87.2291 109.581 88.0678 110.469 88.5858 111.555C89.1285 112.64 89.3998 113.812 89.3998 115.07V124.098C89.3998 124.542 89.1778 124.912 88.7338 125.208C88.2898 125.504 87.7348 125.652 87.0688 125.652C86.4521 125.652 85.9341 125.504 85.5148 125.208C85.1201 124.912 84.9228 124.542 84.9228 124.098V123.062C84.2568 123.826 83.4675 124.505 82.5548 125.097C81.6668 125.689 80.5815 125.985 79.2988 125.985ZM81.2228 122.433C81.7408 122.433 82.2588 122.26 82.7768 121.915C83.2948 121.569 83.7265 121.125 84.0718 120.583C84.4418 120.04 84.6268 119.473 84.6268 118.881V118.104H84.0718C83.2578 118.104 82.4808 118.153 81.7408 118.252C81.0008 118.35 80.3965 118.572 79.9278 118.918C79.4838 119.238 79.2618 119.744 79.2618 120.435C79.2618 121.125 79.4468 121.631 79.8168 121.952C80.2115 122.272 80.6801 122.433 81.2228 122.433ZM95.3088 125.652C94.6182 125.652 94.0508 125.491 93.6068 125.171C93.1628 124.85 92.9408 124.492 92.9408 124.098V109.557C92.9408 109.113 93.1628 108.755 93.6068 108.484C94.0508 108.212 94.6182 108.077 95.3088 108.077C95.9008 108.077 96.3942 108.212 96.7888 108.484C97.2082 108.755 97.4178 109.113 97.4178 109.557V110.667C97.7878 109.951 98.3922 109.31 99.2308 108.743C100.094 108.151 101.142 107.855 102.376 107.855C103.535 107.855 104.596 108.2 105.558 108.891C106.52 109.557 107.284 110.457 107.852 111.592C108.444 112.726 108.74 113.984 108.74 115.366V124.098C108.74 124.616 108.493 125.01 108 125.282C107.506 125.528 106.951 125.652 106.335 125.652C105.792 125.652 105.262 125.528 104.744 125.282C104.226 125.01 103.967 124.616 103.967 124.098V115.366C103.967 114.798 103.819 114.268 103.523 113.775C103.251 113.281 102.869 112.874 102.376 112.554C101.882 112.208 101.34 112.036 100.748 112.036C100.254 112.036 99.7735 112.171 99.3048 112.443C98.8362 112.714 98.4538 113.096 98.1578 113.59C97.8618 114.083 97.7138 114.675 97.7138 115.366V124.098C97.7138 124.492 97.4795 124.85 97.0108 125.171C96.5422 125.491 95.9748 125.652 95.3088 125.652ZM114.676 104.155C113.961 104.155 113.344 103.92 112.826 103.452C112.308 102.958 112.049 102.416 112.049 101.824C112.049 101.182 112.308 100.64 112.826 100.196C113.344 99.7269 113.961 99.4926 114.676 99.4926C115.416 99.4926 116.033 99.7269 116.526 100.196C117.019 100.64 117.266 101.182 117.266 101.824C117.266 102.416 117.019 102.958 116.526 103.452C116.033 103.92 115.416 104.155 114.676 104.155ZM114.676 125.652C113.985 125.652 113.418 125.491 112.974 125.171C112.53 124.85 112.308 124.492 112.308 124.098V109.557C112.308 109.113 112.53 108.755 112.974 108.484C113.418 108.212 113.985 108.077 114.676 108.077C115.342 108.077 115.909 108.212 116.378 108.484C116.847 108.755 117.081 109.113 117.081 109.557V124.098C117.081 124.492 116.847 124.85 116.378 125.171C115.909 125.491 115.342 125.652 114.676 125.652ZM137.058 125.652C136.614 125.652 136.158 125.565 135.689 125.393C135.221 125.22 134.826 124.986 134.505 124.69C134.185 124.394 134.024 124.048 134.024 123.654C134.024 123.58 134.037 123.456 134.061 123.284L141.202 100.011C141.375 99.4679 141.757 99.0609 142.349 98.7896C142.966 98.5183 143.62 98.3826 144.31 98.3826C145.026 98.3826 145.679 98.5183 146.271 98.7896C146.863 99.0609 147.246 99.4679 147.418 100.011L154.559 123.284C154.609 123.456 154.633 123.58 154.633 123.654C154.633 124.024 154.461 124.369 154.115 124.69C153.795 124.986 153.4 125.22 152.931 125.393C152.463 125.565 152.006 125.652 151.562 125.652C151.168 125.652 150.822 125.59 150.526 125.467C150.255 125.319 150.07 125.06 149.971 124.69L148.565 119.769H140.055L138.686 124.69C138.588 125.06 138.39 125.319 138.094 125.467C137.798 125.59 137.453 125.652 137.058 125.652ZM141.091 115.995H147.529L144.31 104.636L141.091 115.995ZM159.156 133.829C158.49 133.829 157.935 133.668 157.491 133.348C157.047 133.027 156.825 132.682 156.825 132.312V109.557C156.825 109.113 157.047 108.755 157.491 108.484C157.935 108.212 158.477 108.077 159.119 108.077C159.76 108.077 160.278 108.212 160.673 108.484C161.092 108.755 161.302 109.113 161.302 109.557V110.667C161.721 109.951 162.362 109.31 163.226 108.743C164.089 108.151 165.113 107.855 166.297 107.855C167.555 107.855 168.677 108.2 169.664 108.891C170.675 109.557 171.464 110.457 172.032 111.592C172.624 112.726 172.92 113.984 172.92 115.366V118.4C172.92 119.707 172.624 120.94 172.032 122.1C171.44 123.259 170.65 124.196 169.664 124.912C168.702 125.627 167.629 125.985 166.445 125.985C165.359 125.985 164.373 125.689 163.485 125.097C162.597 124.505 161.968 123.826 161.598 123.062V132.312C161.598 132.682 161.363 133.027 160.895 133.348C160.426 133.668 159.846 133.829 159.156 133.829ZM164.891 121.804C165.483 121.804 166.013 121.643 166.482 121.323C166.975 120.977 167.37 120.546 167.666 120.028C167.986 119.51 168.147 118.967 168.147 118.4V115.366C168.147 114.798 167.999 114.268 167.703 113.775C167.407 113.281 167 112.874 166.482 112.554C165.988 112.208 165.433 112.036 164.817 112.036C164.274 112.036 163.756 112.171 163.263 112.443C162.794 112.714 162.399 113.096 162.079 113.59C161.758 114.083 161.598 114.675 161.598 115.366V119.066C161.598 119.312 161.733 119.658 162.005 120.102C162.301 120.521 162.695 120.916 163.189 121.286C163.682 121.631 164.249 121.804 164.891 121.804ZM178.342 133.829C177.676 133.829 177.121 133.668 176.677 133.348C176.233 133.027 176.011 132.682 176.011 132.312V109.557C176.011 109.113 176.233 108.755 176.677 108.484C177.121 108.212 177.664 108.077 178.305 108.077C178.946 108.077 179.464 108.212 179.859 108.484C180.278 108.755 180.488 109.113 180.488 109.557V110.667C180.907 109.951 181.549 109.31 182.412 108.743C183.275 108.151 184.299 107.855 185.483 107.855C186.741 107.855 187.863 108.2 188.85 108.891C189.861 109.557 190.651 110.457 191.218 111.592C191.81 112.726 192.106 113.984 192.106 115.366V118.4C192.106 119.707 191.81 120.94 191.218 122.1C190.626 123.259 189.837 124.196 188.85 124.912C187.888 125.627 186.815 125.985 185.631 125.985C184.546 125.985 183.559 125.689 182.671 125.097C181.783 124.505 181.154 123.826 180.784 123.062V132.312C180.784 132.682 180.55 133.027 180.081 133.348C179.612 133.668 179.033 133.829 178.342 133.829ZM184.077 121.804C184.669 121.804 185.199 121.643 185.668 121.323C186.161 120.977 186.556 120.546 186.852 120.028C187.173 119.51 187.333 118.967 187.333 118.4V115.366C187.333 114.798 187.185 114.268 186.889 113.775C186.593 113.281 186.186 112.874 185.668 112.554C185.175 112.208 184.62 112.036 184.003 112.036C183.46 112.036 182.942 112.171 182.449 112.443C181.98 112.714 181.586 113.096 181.265 113.59C180.944 114.083 180.784 114.675 180.784 115.366V119.066C180.784 119.312 180.92 119.658 181.191 120.102C181.487 120.521 181.882 120.916 182.375 121.286C182.868 121.631 183.436 121.804 184.077 121.804Z" fill="white"/>
</svg>
