<svg width="150" height="125" viewBox="0 0 150 125" fill="none" xmlns="http://www.w3.org/2000/svg">
<g clip-path="url(#clip0_854_3658)">
<path d="M3.89407 119.364C3.89407 119.364 4.38971 121.8 8.31225 121.8C11.5549 121.8 12.8719 120.412 12.8719 118.812C12.8719 117.198 11.8665 116.504 8.1849 115.881C2.49227 114.918 0.53819 112.822 0.53819 109.806C0.53819 106.436 3.62528 104.128 8.31225 104.128C15.7887 104.128 16.0297 109.495 16.0297 109.495H12.1353C12.1353 109.495 11.767 107.328 8.31194 107.328C5.52242 107.328 4.36124 108.433 4.36124 109.806C4.36124 111.123 5.49425 112.043 8.4393 112.525C13.9761 113.431 16.6949 115.116 16.6949 118.812C16.6949 122.735 13.3106 125 8.31194 125C0.368283 125 0 119.364 0 119.364H3.89407Z" fill="white"/>
<path d="M16.8748 110.245H19.9194V106.011H23.4736V110.245H27.8633V113.205H23.4736V118.331C23.4736 120.724 23.8701 122.041 25.8382 122.041C26.7303 122.041 27.863 121.885 27.863 121.885V124.717C27.863 124.717 26.7869 125 25.1301 125C21.0943 125 19.9191 122.607 19.9191 118.331V113.205H16.8745V110.245H16.8748Z" fill="white"/>
<path d="M35.8332 109.961C39.9822 109.961 43.4939 113.049 43.4939 117.481C43.4939 121.913 39.9822 125 35.8332 125C31.6844 125 28.1724 121.913 28.1724 117.481C28.1727 113.049 31.6844 109.961 35.8332 109.961ZM35.8332 122.04C38.3539 122.04 39.9397 120.001 39.9397 117.481C39.9397 114.96 38.3539 112.921 35.8332 112.921C33.3127 112.921 31.7266 114.96 31.7266 117.481C31.7269 120.001 33.3127 122.04 35.8332 122.04Z" fill="white"/>
<path d="M52.0011 122.041C54.0544 122.041 54.9465 120.681 54.9465 120.681H58.798C58.798 120.681 57.0564 125 52.0011 125C47.8523 125 44.3403 121.913 44.3403 117.481C44.3403 113.049 47.852 109.962 52.0011 109.962C57.0564 109.962 58.798 114.281 58.798 114.281H54.9465C54.9465 114.281 54.0544 112.922 52.0011 112.922C49.4807 112.922 47.8946 114.961 47.8946 117.482C47.8946 120.001 49.4804 122.041 52.0011 122.041Z" fill="white"/>
<path d="M69.5379 110.245H74.3525L67.5979 116.079L74.3525 124.717H70.1327L65.0064 118.231L63.6754 119.364V124.716H60.1211V103.25H63.6754V115.272L69.5379 110.245Z" fill="white"/>
<path d="M85.0796 121.8C88.6765 121.8 90.0783 119.392 90.0783 119.392H94.2555C94.2555 119.392 92.273 125 85.0796 125C79.3163 125 74.7852 120.61 74.7852 114.564C74.7852 108.517 79.3166 104.127 85.0796 104.127C92.2733 104.127 94.2555 109.735 94.2555 109.735H90.0783C90.0783 109.735 88.6765 107.328 85.0796 107.328C81.2988 107.328 78.6085 110.358 78.6085 114.564C78.6085 118.769 81.2988 121.8 85.0796 121.8Z" fill="white"/>
<path d="M109.732 124.717H106.177V117.594C106.177 115.045 105.356 112.922 102.694 112.922C100.032 112.922 99.2107 115.045 99.2107 117.594V124.717H95.6567V103.25H99.2107V112.525C99.2107 112.525 100.117 109.962 103.232 109.962C107.933 109.962 109.732 113.092 109.732 117.595V124.717H109.732Z" fill="white"/>
<path d="M118.481 109.961C121.682 109.961 123.013 112.454 123.013 112.454V110.245H126.567V124.716H123.013V122.507C123.013 122.507 121.682 125 118.481 125C114.191 125 111.246 121.629 111.246 117.48C111.246 113.332 114.191 109.961 118.481 109.961ZM118.906 122.04C121.427 122.04 123.013 120.001 123.013 117.481C123.013 114.96 121.427 112.921 118.906 112.921C116.386 112.921 114.8 114.96 114.8 117.481C114.8 120.001 116.386 122.04 118.906 122.04Z" fill="white"/>
<path d="M130.836 103.845C131.983 103.845 132.918 104.779 132.918 105.926C132.918 107.073 131.983 108.008 130.836 108.008C129.689 108.008 128.755 107.073 128.755 105.926C128.755 104.779 129.689 103.845 130.836 103.845ZM129.066 110.245H132.62V124.717H129.066V110.245Z" fill="white"/>
<path d="M149.184 124.717H145.63V117.594C145.63 115.045 144.808 112.921 142.146 112.921C139.484 112.921 138.663 115.045 138.663 117.594V124.717H135.109V110.245H138.663V112.525C138.663 112.525 139.569 109.962 142.685 109.962C147.386 109.962 149.184 113.092 149.184 117.595V124.717H149.184Z" fill="white"/>
<path d="M57.7297 0L13.3633 25.7673L33.9538 37.6549V31.6862L39.0889 28.7212L33.9278 25.7416L57.7392 11.9124L115.618 45.4296L91.8218 59.1672L51.846 36.0866L46.7102 39.0497V45.0194L81.5169 65.1143L57.7333 78.8467L15.0522 54.2761V66.1677L57.7355 90.7463L136.207 45.4409L57.7297 0Z" fill="white"/>
<path d="M63.4002 56.8616L57.6188 60.2028L44.7996 52.8065V37.946L57.6188 30.5497L74.8715 40.5074V30.1934L57.6188 20.2295L35.8652 32.7888V57.9637L57.6188 70.523L72.3379 62.0219L63.4002 56.8616Z" fill="white"/>
</g>
<defs>
<clipPath id="clip0_854_3658">
<rect width="149.184" height="125" fill="white"/>
</clipPath>
</defs>
</svg>
